# xmcd
# 
# Track frame offsets:
#     150
#     22307
#     42302
#     65792
#     87700
#     111590
#     130952
#     151270
#     169757
#     192892
# 
# Disc length: 2835
# 
# Revision: 5
# Processed by: cddbd v1.5.2PL0 Copyright (c) Steve Scherf et al.
# Submitted via: fre:ac v1.0.27
# 
DISCID=950b110a
DTITLE=大黒摩季 - LA,LA,LA
DYEAR=1995
DGENRE=Pop
TTITLE0=Tender Rain
TTITLE1=FIRE
TTITLE2=LOVIN' YOU
TTITLE3=いちばん近くにいてね
TTITLE4=あなたがいればそれだけでよかった
TTITLE5=Summer Breeze
TTITLE6=恋はメリーゴーランド～Original Version～
TTITLE7=太陽をつかまえに行こう
TTITLE8=もう一度だけ…
TTITLE9=ら・ら・ら
EXTD=
EXTT0=
EXTT1=
EXTT2=
EXTT3=
EXTT4=
EXTT5=
EXTT6=
EXTT7=
EXTT8=
EXTT9=
PLAYORDER=
